# xmcd
#
# Track frame offsets: 
#        150
#        8890
#        13307
#        28579
#        40948
#        52087
#        64960
#        84919
#        97581
#        114624
#        136430
#        155807
#        175243
#        190117
#        202239
#        215085
#        233110
#        245248
#        274416
#
# Disc length: 3858 seconds
#
# Revision: 6
# Processed by: cddbd v1.5.2PL0 Copyright (c) Steve Scherf et al.
# Submitted via: ExactAudioCopy v1.3
#
DISCID=1c0f1013
DTITLE=Claudio Abbado, Berliner Philharmoniker - Symphony Ed 34 - 1999
DTITLE=Various Artist - Mahler, Symphonie Nr. 3 (Teil 2) - Abbado live
DYEAR=1999
DGENRE=Klassik
TTITLE0=Symphonie Nr. 3 d-Moll - 2. Tempo di Menuetto. Sehr mäßig
TTITLE1=Symphonie Nr. 3 d-Moll - 2. L'istesso tempo
TTITLE2=Symphonie Nr. 3 d-Moll - 2. A tempo
TTITLE3=Symphonie Nr. 3 d-Moll - 2. Ganz plötzlich gemächlich. Tempo d
TTITLE3=i Menuetto
TTITLE4=Symphonie Nr. 3 d-Moll - 3. Comodo. Scherzando. Ohne Hast
TTITLE5=Symphonie Nr. 3 d-Moll - 3. Wieder sehr gemächlich, wie zu Anf
TTITLE5=ang
TTITLE6=Symphonie Nr. 3 d-Moll - 3. Etwas zurückhaltend
TTITLE7=Symphonie Nr. 3 d-Moll - 3. Tempo I
TTITLE8=Symphonie Nr. 3 d-Moll - 3. Wieder sehr gemächlich, beinahe la
TTITLE8=ngsam
TTITLE9=Symphonie Nr. 3 d-Moll - 4. Sehr langsam. Misterioso. Durchaus
TTITLE9=ppp
TTITLE10=Symphonie Nr. 3 d-Moll - 4. Pii mosso subito
TTITLE11=Symphonie Nr. 3 d-Moll - 5. Lustig im Tempo und keck im Ausdr
TTITLE11=uck
TTITLE12=Symphonie Nr. 3 d-Moll - 6. Langsam. Ruhevoll. Empfunden
TTITLE13=Symphonie Nr. 3 d-Moll - 6. Nicht mehr so breit
TTITLE14=Symphonie Nr. 3 d-Moll - 6. Tempo I. Ruhevoll
TTITLE15=Symphonie Nr. 3 d-Moll - 6. Nicht mehr so breit
TTITLE16=Symphonie Nr. 3 d-Moll - 6. Tempo I
TTITLE17=Symphonie Nr. 3 d-Moll - 6. Langsam. Tempo I
TTITLE18=Applause
EXTD=YEAR: 2002
EXTT0=
EXTT1=
EXTT2=
EXTT3=
EXTT4=
EXTT5=
EXTT6=
EXTT7=
EXTT8=
EXTT9=
EXTT10=
EXTT11=
EXTT12=
EXTT13=
EXTT14=
EXTT15=
EXTT16=
EXTT17=
EXTT18=
PLAYORDER=
